<?xml version="1.0" standalone="no"?>
<!DOCTYPE svg PUBLIC "-//W3C//DTD SVG 20010904//EN"
 "http://www.w3.org/TR/2001/REC-SVG-20010904/DTD/svg10.dtd">
<svg version="1.0" xmlns="http://www.w3.org/2000/svg"
 width="512.000000pt" height="512.000000pt" viewBox="0 0 512.000000 512.000000"
 preserveAspectRatio="xMidYMid meet">
<metadata>
Created by potrace 1.11, written by Peter Selinger 2001-2013
</metadata>
<g transform="translate(0.000000,512.000000) scale(0.100000,-0.100000)"
fill="#000000" stroke="none">
<path d="M978 5098 c-19 -15 -30 -58 -20 -75 4 -7 275 -283 602 -613 327 -331
609 -622 628 -648 76 -107 114 -239 107 -375 -2 -51 -6 -99 -8 -107 -16 -61
-22 -80 -39 -120 -10 -25 -33 -66 -51 -92 l-32 -48 -264 268 c-1086 1101
-1330 1342 -1359 1342 -52 0 -80 -60 -48 -102 10 -14 402 -411 1530 -1549 l48
-49 -23 -18 c-58 -45 -157 -91 -234 -108 -11 -3 -62 -7 -113 -9 -72 -2 -110 2
-165 17 -158 44 -138 27 -817 710 -635 638 -646 648 -686 620 -20 -13 -31 -44
-26 -70 4 -18 151 -173 458 -482 248 -250 518 -521 598 -602 201 -203 268
-250 426 -299 63 -20 97 -24 205 -24 140 1 202 13 305 62 94 45 189 28 288
-54 l44 -36 60 60 60 60 -38 49 c-78 103 -95 188 -54 278 44 96 62 177 65 296
5 158 -23 279 -95 400 -59 101 -52 93 -873 919 -428 431 -433 435 -479 399z"/>
<path d="M4236 4853 c-250 -37 -509 -170 -722 -372 -183 -175 -313 -376 -389
-604 -43 -130 -46 -147 -51 -292 -4 -144 12 -236 62 -344 19 -41 34 -79 34
-85 0 -24 -75 -121 -163 -211 -51 -52 -367 -373 -704 -713 l-612 -618 -52 -3
c-181 -8 -487 -209 -739 -487 -198 -218 -330 -466 -332 -624 0 -61 18 -98 61
-127 29 -19 44 -22 110 -19 371 15 1056 709 1072 1086 2 44 5 48 220 265 120
121 297 301 394 400 508 520 840 846 880 865 l42 20 44 -25 c53 -30 152 -61
232 -73 166 -26 378 16 590 116 102 48 231 135 326 219 20 18 45 40 57 50 36
31 162 182 205 245 107 157 189 359 215 528 10 69 11 230 2 275 -34 155 -67
227 -158 338 -30 37 -132 109 -193 136 -133 60 -273 77 -431 54z m535 -290
c82 -94 127 -226 124 -373 -2 -118 -11 -169 -51 -289 -36 -108 -77 -192 -149
-301 -47 -71 -133 -175 -152 -184 -10 -4 -83 57 -83 71 0 3 17 25 38 47 85 96
145 185 196 296 119 259 117 506 -6 676 l-32 44 29 30 c16 17 32 30 36 30 4 0
26 -21 50 -47z"/>
<path d="M2881 2193 l-59 -58 444 -450 c413 -418 444 -452 445 -485 2 -117 85
-299 217 -476 87 -117 302 -332 425 -423 229 -171 458 -248 547 -183 46 34 62
79 56 159 -8 105 -55 221 -144 358 -245 376 -655 695 -925 721 l-52 5 -439
445 c-241 244 -442 444 -447 444 -5 0 -36 -26 -68 -57z"/>
</g>
</svg>
